<?xml version="1.0" encoding="UTF-8" standalone="no"?>
<!DOCTYPE svg PUBLIC "-//W3C//DTD SVG 1.1//EN" "http://www.w3.org/Graphics/SVG/1.1/DTD/svg11.dtd">
<svg width="100%" height="100%" viewBox="0 0 613 167" version="1.1" xmlns="http://www.w3.org/2000/svg" xmlns:xlink="http://www.w3.org/1999/xlink" xml:space="preserve" xmlns:serif="http://www.serif.com/" style="fill-rule:evenodd;clip-rule:evenodd;stroke-linejoin:round;stroke-miterlimit:2;">
    <g transform="matrix(0.837178,0,0,0.636364,-112.974,-143.966)">
        <rect id="ArtBoard1" x="134.946" y="226.233" width="731.287" height="261.953" style="fill:none;"/>
        <g id="ArtBoard11" serif:id="ArtBoard1">
            <g transform="matrix(1.19449,0,0,1.57143,-105.441,-65.6367)">
                <path d="M293.299,314.804C289.363,316.724 284.995,318.26 280.195,319.412C275.395,320.564 269.539,321.14 262.627,321.14C256.675,321.14 251.227,320.156 246.283,318.188C241.339,316.22 237.115,313.412 233.611,309.764C230.107,306.116 227.395,301.676 225.475,296.444C223.555,291.212 222.595,285.332 222.595,278.804C222.595,271.316 223.915,263.876 226.555,256.484C229.195,249.092 233.083,242.492 238.219,236.684C243.355,230.876 249.643,226.148 257.083,222.5C264.523,218.852 273.091,217.028 282.787,217.028C287.395,217.028 291.931,217.556 296.395,218.612C300.859,219.668 305.539,221.54 310.435,224.228L302.371,241.652C298.339,239.54 294.739,238.1 291.571,237.332C288.403,236.564 284.995,236.18 281.347,236.18C275.875,236.18 270.955,237.284 266.587,239.492C262.219,241.7 258.475,244.7 255.355,248.492C252.235,252.284 249.859,256.676 248.227,261.668C246.595,266.66 245.779,271.94 245.779,277.508C245.779,285.956 247.627,292.1 251.323,295.94C255.019,299.78 260.323,301.7 267.235,301.7C271.843,301.7 276.091,301.22 279.979,300.26C283.867,299.3 287.491,298.052 290.851,296.516L293.299,314.804Z" style="fill:white;fill-rule:nonzero;"/>
                <path d="M338.227,321.14C333.139,321.14 328.723,320.372 324.979,318.836C321.235,317.3 318.139,315.14 315.691,312.356C313.243,309.572 311.395,306.284 310.147,302.492C308.899,298.7 308.275,294.5 308.275,289.892C308.275,284.132 309.211,278.372 311.083,272.612C312.955,266.852 315.715,261.668 319.363,257.06C323.011,252.452 327.475,248.684 332.755,245.756C338.035,242.828 344.083,241.364 350.899,241.364C355.891,241.364 360.283,242.132 364.075,243.668C367.867,245.204 370.987,247.364 373.435,250.148C375.883,252.932 377.731,256.22 378.979,260.012C380.227,263.804 380.851,268.004 380.851,272.612C380.851,278.372 379.939,284.132 378.115,289.892C376.291,295.652 373.603,300.836 370.051,305.444C366.499,310.052 362.059,313.82 356.731,316.748C351.403,319.676 345.235,321.14 338.227,321.14ZM348.883,259.508C345.715,259.508 342.931,260.42 340.531,262.244C338.131,264.068 336.115,266.372 334.483,269.156C332.851,271.94 331.627,274.988 330.811,278.3C329.995,281.612 329.587,284.756 329.587,287.732C329.587,292.628 330.355,296.396 331.891,299.036C333.427,301.676 336.211,302.996 340.243,302.996C343.411,302.996 346.195,302.084 348.595,300.26C350.995,298.436 353.011,296.132 354.643,293.348C356.275,290.564 357.499,287.516 358.315,284.204C359.131,280.892 359.539,277.748 359.539,274.772C359.539,269.876 358.771,266.108 357.235,263.468C355.699,260.828 352.915,259.508 348.883,259.508Z" style="fill:white;fill-rule:nonzero;"/>
                <path d="M444.499,261.812C442.579,261.332 440.683,260.876 438.811,260.444C436.939,260.012 434.179,259.796 430.531,259.796C429.187,259.796 427.699,259.916 426.067,260.156C424.435,260.396 423.091,260.66 422.035,260.948L408.067,319.124L386.611,319.124L403.891,247.412C408.019,246.068 412.651,244.796 417.787,243.596C422.923,242.396 428.707,241.796 435.139,241.796C437.539,241.796 440.203,242.012 443.131,242.444C446.059,242.876 448.627,243.572 450.835,244.532L444.499,261.812Z" style="fill:white;fill-rule:nonzero;"/>
                <path d="M449.395,289.46C449.395,283.316 450.475,277.364 452.635,271.604C454.795,265.844 457.843,260.732 461.779,256.268C465.715,251.804 470.491,248.204 476.107,245.468C481.723,242.732 487.939,241.364 494.755,241.364C498.115,241.364 501.235,241.844 504.115,242.804C506.995,243.764 509.515,245.156 511.675,246.98C513.835,248.804 515.515,251.036 516.715,253.676C517.915,256.316 518.515,259.316 518.515,262.676C518.515,268.052 517.315,272.612 514.915,276.356C512.515,280.1 509.179,283.148 504.907,285.5C500.635,287.852 495.571,289.556 489.715,290.612C483.859,291.668 477.475,292.196 470.563,292.196C471.235,296.228 472.699,299.084 474.955,300.764C477.211,302.444 480.787,303.284 485.683,303.284C488.755,303.284 491.875,303.02 495.043,302.492C498.211,301.964 501.187,301.172 503.971,300.116L505.555,316.964C502.867,318.02 499.435,318.98 495.259,319.844C491.083,320.708 486.547,321.14 481.651,321.14C475.699,321.14 470.683,320.3 466.603,318.62C462.523,316.94 459.211,314.66 456.667,311.78C454.123,308.9 452.275,305.54 451.123,301.7C449.971,297.86 449.395,293.78 449.395,289.46ZM491.299,258.356C486.403,258.356 482.107,260.108 478.411,263.612C474.715,267.116 472.291,271.748 471.139,277.508C477.091,277.316 481.891,276.812 485.539,275.996C489.187,275.18 492.019,274.196 494.035,273.044C496.051,271.892 497.395,270.644 498.067,269.3C498.739,267.956 499.075,266.612 499.075,265.268C499.075,260.66 496.483,258.356 491.299,258.356Z" style="fill:white;fill-rule:nonzero;"/>
                <path d="M556.243,320.42C550.483,320.42 544.579,320.18 538.531,319.7C532.483,319.22 527.011,318.452 522.115,317.396L545.155,220.916C550.627,219.86 556.363,219.14 562.363,218.756C568.363,218.372 573.859,218.18 578.851,218.18C584.611,218.18 589.579,218.78 593.755,219.98C597.931,221.18 601.339,222.788 603.979,224.804C606.619,226.82 608.587,229.196 609.883,231.932C611.179,234.668 611.827,237.572 611.827,240.644C611.827,242.756 611.611,244.964 611.179,247.268C610.747,249.572 609.883,251.852 608.587,254.108C607.291,256.364 605.515,258.5 603.259,260.516C601.003,262.532 598.051,264.356 594.403,265.988C598.723,267.908 601.891,270.524 603.907,273.836C605.923,277.148 606.931,280.82 606.931,284.852C606.931,289.46 606.019,293.9 604.195,298.172C602.371,302.444 599.443,306.236 595.411,309.548C591.379,312.86 586.147,315.5 579.715,317.468C573.283,319.436 565.459,320.42 556.243,320.42ZM554.227,275.492L548.035,301.412C549.571,301.7 551.515,301.916 553.867,302.06C556.219,302.204 558.403,302.276 560.419,302.276C563.299,302.276 566.155,302.06 568.987,301.628C571.819,301.196 574.363,300.404 576.619,299.252C578.875,298.1 580.723,296.516 582.163,294.5C583.603,292.484 584.323,289.892 584.323,286.724C584.323,285.38 584.059,284.036 583.531,282.692C583.003,281.348 582.163,280.148 581.011,279.092C579.859,278.036 578.347,277.172 576.475,276.5C574.603,275.828 572.371,275.492 569.779,275.492L554.227,275.492ZM558.403,258.644L572.515,258.644C578.275,258.644 582.571,257.396 585.403,254.9C588.235,252.404 589.651,249.428 589.651,245.972C589.651,244.148 589.243,242.588 588.427,241.292C587.611,239.996 586.531,238.964 585.187,238.196C583.843,237.428 582.307,236.876 580.579,236.54C578.851,236.204 577.075,236.036 575.251,236.036C573.235,236.036 571.075,236.108 568.771,236.252C566.467,236.396 564.739,236.564 563.587,236.756L558.403,258.644Z" style="fill:white;fill-rule:nonzero;"/>
                <path d="M708.883,219.332L704.275,238.196L675.043,238.196L655.603,319.124L633.139,319.124L652.579,238.196L623.347,238.196L627.955,219.332L708.883,219.332Z" style="fill:white;fill-rule:nonzero;"/>
                <path d="M774.979,314.804C771.043,316.724 766.675,318.26 761.875,319.412C757.075,320.564 751.219,321.14 744.307,321.14C738.355,321.14 732.907,320.156 727.963,318.188C723.019,316.22 718.795,313.412 715.291,309.764C711.787,306.116 709.075,301.676 707.155,296.444C705.235,291.212 704.275,285.332 704.275,278.804C704.275,271.316 705.595,263.876 708.235,256.484C710.875,249.092 714.763,242.492 719.899,236.684C725.035,230.876 731.323,226.148 738.763,222.5C746.203,218.852 754.771,217.028 764.467,217.028C769.075,217.028 773.611,217.556 778.075,218.612C782.539,219.668 787.219,221.54 792.115,224.228L784.051,241.652C780.019,239.54 776.419,238.1 773.251,237.332C770.083,236.564 766.675,236.18 763.027,236.18C757.555,236.18 752.635,237.284 748.267,239.492C743.899,241.7 740.155,244.7 737.035,248.492C733.915,252.284 731.539,256.676 729.907,261.668C728.275,266.66 727.459,271.94 727.459,277.508C727.459,285.956 729.307,292.1 733.003,295.94C736.699,299.78 742.003,301.7 748.915,301.7C753.523,301.7 757.771,301.22 761.659,300.26C765.547,299.3 769.171,298.052 772.531,296.516L774.979,314.804Z" style="fill:white;fill-rule:nonzero;"/>
            </g>
        </g>
    </g>
</svg>
